<?xml version="1.0" encoding="UTF-8" standalone="no"?>
<!DOCTYPE svg PUBLIC "-//W3C//DTD SVG 1.1//EN" "http://www.w3.org/Graphics/SVG/1.1/DTD/svg11.dtd">
<svg version="1.1" xmlns="http://www.w3.org/2000/svg" xmlns:xlink="http://www.w3.org/1999/xlink" preserveAspectRatio="xMidYMid meet" viewBox="0 0 640 640" width="50" height="50"><defs><path d="M450.98 226C465 226 476.37 237.37 476.37 251.39C476.37 256.46 476.37 246.31 476.37 251.39C476.37 265.41 465 276.77 450.98 276.77C393.51 276.77 246.49 276.77 189.02 276.77C175 276.77 163.63 265.41 163.63 251.39C163.63 246.31 163.63 256.46 163.63 251.39C163.63 237.37 175 226 189.02 226C246.49 226 393.51 226 450.98 226Z" id="aMOEXTU9u"></path><path d="M450.98 300.61C465 300.61 476.37 311.98 476.37 326C476.37 331.08 476.37 320.92 476.37 326C476.37 340.02 465 351.39 450.98 351.39C393.51 351.39 246.49 351.39 189.02 351.39C175 351.39 163.63 340.02 163.63 326C163.63 320.92 163.63 331.08 163.63 326C163.63 311.98 175 300.61 189.02 300.61C246.49 300.61 393.51 300.61 450.98 300.61Z" id="bfI4REqQt"></path><path d="M450.98 376C465 376 476.37 387.37 476.37 401.39C476.37 406.46 476.37 396.31 476.37 401.39C476.37 415.41 465 426.77 450.98 426.77C393.51 426.77 246.49 426.77 189.02 426.77C175 426.77 163.63 415.41 163.63 401.39C163.63 396.31 163.63 406.46 163.63 401.39C163.63 387.37 175 376 189.02 376C246.49 376 393.51 376 450.98 376Z" id="a2kSMdX0uO"></path></defs><g><g><g><use xlink:href="#aMOEXTU9u" opacity="0.7" fill="#474343" fill-opacity="1"></use></g><g><use xlink:href="#bfI4REqQt" opacity="0.7" fill="#474343" fill-opacity="1"></use></g><g><use xlink:href="#a2kSMdX0uO" opacity="0.7" fill="#474343" fill-opacity="1"></use></g></g></g></svg>