<?xml version="1.0" encoding="UTF-8" standalone="no"?>
<!DOCTYPE svg PUBLIC "-//W3C//DTD SVG 1.1//EN" "http://www.w3.org/Graphics/SVG/1.1/DTD/svg11.dtd">
<svg version="1.1" xmlns="http://www.w3.org/2000/svg" xmlns:xlink="http://www.w3.org/1999/xlink" preserveAspectRatio="xMidYMid meet" viewBox="0 0 533.333 533.333" width="20" height="20"><defs><path d="M43.96 2.05L44.6 2.11L45.23 2.2L45.87 2.31L46.49 2.44L47.12 2.6L47.74 2.78L48.35 2.99L48.95 3.22L49.55 3.48L50.14 3.76L50.72 4.06L51.29 4.39L51.85 4.75L52.4 5.12L52.94 5.53L53.46 5.95L53.97 6.41L54.47 6.88L267.38 219.8L480.29 6.89L480.79 6.41L481.3 5.96L481.82 5.53L482.36 5.13L482.91 4.75L483.47 4.4L484.04 4.07L484.62 3.76L485.21 3.48L485.81 3.22L486.41 2.99L487.03 2.79L487.64 2.6L488.27 2.44L488.9 2.31L489.53 2.2L490.16 2.11L490.8 2.05L491.44 2.02L492.08 2L492.72 2.02L493.36 2.05L494 2.11L494.63 2.2L495.26 2.31L495.89 2.44L496.51 2.6L497.13 2.79L497.75 2.99L498.35 3.22L498.95 3.48L499.54 3.76L500.12 4.07L500.69 4.4L501.25 4.75L501.8 5.13L502.34 5.53L502.86 5.96L503.37 6.41L503.86 6.89L527.43 30.46L527.91 30.95L528.36 31.46L528.79 31.99L529.19 32.52L529.57 33.07L529.92 33.63L530.25 34.2L530.56 34.78L530.84 35.37L531.1 35.97L531.33 36.57L531.54 37.19L531.72 37.81L531.88 38.43L532.01 39.06L532.12 39.69L532.21 40.32L532.27 40.96L532.3 41.6L532.32 42.24L532.3 42.88L532.27 43.52L532.21 44.16L532.12 44.79L532.01 45.42L531.88 46.05L531.72 46.68L531.54 47.29L531.33 47.91L531.1 48.51L530.84 49.11L530.56 49.7L530.25 50.28L529.92 50.85L529.57 51.41L529.19 51.96L528.79 52.5L528.36 53.02L527.91 53.53L527.43 54.03L314.52 266.94L527.43 479.84L527.9 480.33L528.35 480.84L528.78 481.37L529.18 481.9L529.56 482.45L529.91 483.01L530.24 483.58L530.55 484.16L530.83 484.75L531.09 485.35L531.32 485.96L531.53 486.57L531.71 487.19L531.87 487.81L532 488.44L532.11 489.07L532.2 489.71L532.26 490.35L532.29 490.98L532.31 491.62L532.29 492.26L532.26 492.9L532.2 493.54L532.11 494.18L532 494.81L531.87 495.44L531.71 496.06L531.53 496.68L531.32 497.29L531.09 497.9L530.83 498.49L530.55 499.08L530.24 499.66L529.91 500.23L529.56 500.79L529.18 501.34L528.78 501.88L528.35 502.4L527.9 502.91L527.43 503.41L503.85 526.98L503.36 527.46L502.85 527.91L502.33 528.33L501.79 528.74L501.24 529.11L500.68 529.47L500.11 529.8L499.53 530.1L498.94 530.38L498.34 530.64L497.74 530.87L497.12 531.08L496.51 531.26L495.88 531.42L495.25 531.56L494.62 531.67L493.99 531.75L493.35 531.81L492.71 531.85L492.07 531.86L491.43 531.85L490.79 531.81L490.15 531.75L489.52 531.67L488.89 531.56L488.26 531.42L487.63 531.26L487.02 531.08L486.4 530.87L485.8 530.64L485.2 530.38L484.61 530.1L484.03 529.8L483.46 529.47L482.9 529.11L482.35 528.74L481.81 528.33L481.29 527.91L480.78 527.46L480.28 526.98L267.38 314.08L54.48 526.98L53.98 527.46L53.47 527.91L52.95 528.34L52.41 528.74L51.86 529.12L51.3 529.47L50.73 529.8L50.15 530.11L49.56 530.39L48.96 530.64L48.36 530.88L47.75 531.08L47.13 531.27L46.5 531.43L45.88 531.56L45.24 531.67L44.61 531.76L43.97 531.82L43.33 531.85L42.69 531.86L42.05 531.85L41.41 531.82L40.78 531.76L40.14 531.67L39.51 531.56L38.88 531.43L38.26 531.27L37.64 531.08L37.03 530.88L36.42 530.64L35.82 530.39L35.23 530.11L34.65 529.8L34.08 529.47L33.52 529.12L32.97 528.74L32.44 528.34L31.91 527.91L31.4 527.46L30.91 526.98L7.34 503.41L6.86 502.92L6.41 502.41L5.98 501.88L5.58 501.35L5.2 500.8L4.85 500.24L4.52 499.67L4.21 499.09L3.93 498.5L3.68 497.9L3.44 497.29L3.24 496.68L3.05 496.06L2.89 495.44L2.76 494.81L2.65 494.18L2.57 493.54L2.5 492.91L2.47 492.27L2.46 491.63L2.47 490.99L2.5 490.35L2.57 489.71L2.65 489.08L2.76 488.44L2.89 487.82L3.05 487.19L3.24 486.57L3.44 485.96L3.68 485.36L3.93 484.76L4.21 484.17L4.52 483.59L4.85 483.02L5.2 482.46L5.58 481.91L5.98 481.37L6.41 480.85L6.86 480.34L7.34 479.84L220.24 266.94L7.33 54.02L6.85 53.53L6.4 53.02L5.97 52.49L5.57 51.96L5.19 51.41L4.84 50.85L4.51 50.28L4.2 49.7L3.92 49.11L3.67 48.51L3.43 47.9L3.23 47.29L3.04 46.67L2.89 46.05L2.75 45.42L2.64 44.79L2.56 44.15L2.49 43.52L2.46 42.88L2.45 42.24L2.46 41.6L2.49 40.96L2.56 40.32L2.64 39.69L2.75 39.05L2.89 38.43L3.04 37.8L3.23 37.18L3.43 36.57L3.67 35.97L3.92 35.37L4.2 34.78L4.51 34.2L4.84 33.63L5.19 33.07L5.57 32.52L5.97 31.98L6.4 31.46L6.85 30.95L7.33 30.45L30.9 6.88L31.39 6.41L31.9 5.95L32.43 5.53L32.96 5.12L33.51 4.75L34.07 4.39L34.64 4.06L35.22 3.76L35.81 3.48L36.41 3.22L37.02 2.99L37.63 2.78L38.25 2.6L38.87 2.44L39.5 2.31L40.13 2.2L40.77 2.11L41.4 2.05L42.04 2.01L42.68 2L43.32 2.01L43.96 2.05Z" id="b9uJW02uSr"></path><path d="M-107.09 -451.43C-107.09 -430.59 -124.01 -413.66 -144.85 -413.66C-165.7 -413.66 -182.62 -430.59 -182.62 -451.43C-182.62 -472.27 -165.7 -489.19 -144.85 -489.19C-124.01 -489.19 -107.09 -472.27 -107.09 -451.43Z" id="bnxkr3uLU"></path></defs><g><g><g><use xlink:href="#b9uJW02uSr" opacity="1" fill="#dbdbdb" fill-opacity="1"></use></g><g><use xlink:href="#bnxkr3uLU" opacity="1" fill="#1e394a" fill-opacity="1"></use></g></g></g></svg>