<?xml version="1.0" encoding="UTF-8" standalone="no"?>
<!DOCTYPE svg PUBLIC "-//W3C//DTD SVG 1.1//EN" "http://www.w3.org/Graphics/SVG/1.1/DTD/svg11.dtd">
<svg version="1.1" xmlns="http://www.w3.org/2000/svg" xmlns:xlink="http://www.w3.org/1999/xlink" preserveAspectRatio="xMidYMid meet" viewBox="0 0 635 418" width="25" height="16.46"><defs><path d="M581.5 7.13C609.74 7.13 632.63 30.02 632.63 58.27C632.63 68.49 632.63 48.04 632.63 58.27C632.63 86.51 609.74 109.4 581.5 109.4C465.72 109.4 169.54 109.4 53.77 109.4C25.53 109.4 2.63 86.51 2.63 58.27C2.63 48.04 2.63 68.49 2.63 58.27C2.63 30.02 25.53 7.13 53.77 7.13C169.54 7.13 465.72 7.13 581.5 7.13Z" id="b3YZdmQgN"></path><path d="M581.5 156.31C609.74 156.31 632.63 179.21 632.63 207.45C632.63 217.68 632.63 197.22 632.63 207.45C632.63 235.69 609.74 258.59 581.5 258.59C465.72 258.59 169.54 258.59 53.77 258.59C25.53 258.59 2.63 235.69 2.63 207.45C2.63 197.22 2.63 217.68 2.63 207.45C2.63 179.21 25.53 156.31 53.77 156.31C169.54 156.31 465.72 156.31 581.5 156.31Z" id="a5Qkh4y9BD"></path><path d="M581.5 308.17C609.74 308.17 632.63 331.07 632.63 359.31C632.63 369.54 632.63 349.08 632.63 359.31C632.63 387.55 609.74 410.45 581.5 410.45C465.72 410.45 169.54 410.45 53.77 410.45C25.53 410.45 2.63 387.55 2.63 359.31C2.63 349.08 2.63 369.54 2.63 359.31C2.63 331.07 25.53 308.17 53.77 308.17C169.54 308.17 465.72 308.17 581.5 308.17Z" id="d1HrqlkTp2"></path></defs><g><g><g><use xlink:href="#b3YZdmQgN" opacity="0.7" fill="#474343" fill-opacity="1"></use></g><g><use xlink:href="#a5Qkh4y9BD" opacity="0.7" fill="#474343" fill-opacity="1"></use></g><g><use xlink:href="#d1HrqlkTp2" opacity="0.7" fill="#474343" fill-opacity="1"></use></g></g></g></svg>